<?xml version="1.0" encoding="UTF-8" standalone="no"?>
<svg
   width="49.223999mm"
   height="49.223999mm"
   viewBox="0 0 49.224001 49.224"
   version="1.1"
   id="svg8"
   inkscape:version="1.1 (c68e22c387, 2021-05-23)"
   sodipodi:docname="live-logo.inkscape-iter3.svg"
   inkscape:export-filename="C:\dev\scribbletune\live\logo\logo-live.png"
   inkscape:export-xdpi="66.050003"
   inkscape:export-ydpi="66.050003"
   xmlns:inkscape="http://www.inkscape.org/namespaces/inkscape"
   xmlns:sodipodi="http://sodipodi.sourceforge.net/DTD/sodipodi-0.dtd"
   xmlns="http://www.w3.org/2000/svg"
   xmlns:svg="http://www.w3.org/2000/svg"
   xmlns:rdf="http://www.w3.org/1999/02/22-rdf-syntax-ns#"
   xmlns:cc="http://creativecommons.org/ns#"
   xmlns:dc="http://purl.org/dc/elements/1.1/">
  <defs
     id="defs2">
    <rect
       x="126.54173"
       y="886.16931"
       width="396.40811"
       height="189.213"
       id="rect18868" />
    <linearGradient
       id="linearGradient12400"
       inkscape:swatch="solid">
      <stop
         style="stop-color:#000000;stop-opacity:1;"
         offset="0"
         id="stop12398" />
    </linearGradient>
    <rect
       x="126.54173"
       y="886.16931"
       width="262.02969"
       height="123.8307"
       id="rect18868-8" />
    <rect
       x="126.54173"
       y="886.16931"
       width="250.50673"
       height="119.98971"
       id="rect18868-7" />
    <rect
       x="126.54173"
       y="886.16931"
       width="250.50673"
       height="119.98971"
       id="rect18868-6" />
    <rect
       x="126.54173"
       y="886.16931"
       width="396.40811"
       height="189.213"
       id="rect18868-3" />
    <rect
       x="126.54173"
       y="886.16931"
       width="396.40811"
       height="189.213"
       id="rect18868-77" />
    <rect
       x="126.54173"
       y="886.16931"
       width="396.40811"
       height="189.213"
       id="rect18868-1" />
    <rect
       x="126.54173"
       y="886.16931"
       width="396.40811"
       height="189.213"
       id="rect18868-2" />
    <rect
       x="126.54173"
       y="886.16931"
       width="396.40811"
       height="189.213"
       id="rect18868-2-5" />
    <rect
       x="126.54173"
       y="886.16931"
       width="396.40811"
       height="189.213"
       id="rect18868-2-5-1" />
    <rect
       x="126.54173"
       y="886.16931"
       width="396.40811"
       height="189.213"
       id="rect18868-2-5-1-8" />
    <rect
       x="126.54173"
       y="886.16931"
       width="396.40811"
       height="189.213"
       id="rect18868-2-5-1-7" />
    <rect
       x="126.54173"
       y="886.16931"
       width="396.40811"
       height="189.213"
       id="rect18868-2-5-1-8-4" />
    <rect
       x="126.54173"
       y="886.16931"
       width="396.40811"
       height="189.213"
       id="rect18868-2-5-1-8-4-6" />
    <rect
       x="126.54173"
       y="886.16931"
       width="396.40811"
       height="189.213"
       id="rect18868-2-5-1-8-1" />
  </defs>
  <sodipodi:namedview
     id="base"
     pagecolor="#ffffff"
     bordercolor="#666666"
     borderopacity="1.0"
     inkscape:pageopacity="0.0"
     inkscape:pageshadow="2"
     inkscape:zoom="3.2002302"
     inkscape:cx="150.7704"
     inkscape:cy="59.839445"
     inkscape:document-units="mm"
     inkscape:current-layer="layer1"
     inkscape:document-rotation="0"
     showgrid="false"
     inkscape:window-width="2374"
     inkscape:window-height="1677"
     inkscape:window-x="3245"
     inkscape:window-y="165"
     inkscape:window-maximized="0"
     inkscape:pagecheckerboard="0"
     units="mm"
     inkscape:lockguides="true"
     width="49.159mm" />
  <metadata
     id="metadata5">
    <rdf:RDF>
      <cc:Work
         rdf:about="">
        <dc:format>image/svg+xml</dc:format>
        <dc:type
           rdf:resource="http://purl.org/dc/dcmitype/StillImage" />
      </cc:Work>
    </rdf:RDF>
  </metadata>
  <g
     inkscape:label="Layer 1"
     inkscape:groupmode="layer"
     id="layer1">
    <rect
       style="fill:#808080;stroke:#000000;stroke-width:0;stroke-linejoin:round;stroke-miterlimit:4;stroke-dasharray:none;fill-opacity:0.5"
       id="rect1751"
       width="49.223999"
       height="49.223999"
       x="-0.082676344"
       y="0" />
    <g
       id="g1681"
       transform="translate(-0.72807758)">
      <rect
         style="fill:#000000;fill-opacity:1;stroke:#000000;stroke-width:0;stroke-linejoin:round;stroke-miterlimit:4;stroke-dasharray:none"
         id="rect1666-34"
         width="3.1738257"
         height="14.699824"
         x="8.0473967"
         y="5.9251862"
         rx="1.5"
         ry="1.5" />
      <rect
         style="fill:#000000;fill-opacity:1;stroke:#000000;stroke-width:0;stroke-linejoin:round;stroke-miterlimit:4;stroke-dasharray:none"
         id="rect1666-34-3"
         width="3.1738257"
         height="14.699824"
         x="14.540462"
         y="5.9251862"
         rx="1.5"
         ry="1.5" />
      <rect
         style="fill:#000000;fill-opacity:1;stroke:#000000;stroke-width:0;stroke-linejoin:round;stroke-miterlimit:4;stroke-dasharray:none"
         id="rect1666-34-2"
         width="3.1738257"
         height="14.699824"
         x="26.247269"
         y="5.9251862"
         rx="1.5"
         ry="1.5" />
      <rect
         style="fill:#000000;fill-opacity:1;stroke:#000000;stroke-width:0;stroke-linejoin:round;stroke-miterlimit:4;stroke-dasharray:none"
         id="rect1666-34-6"
         width="3.1738257"
         height="14.699824"
         x="32.800499"
         y="5.9251862"
         rx="1.5"
         ry="1.5" />
      <rect
         style="fill:#000000;fill-opacity:1;stroke:#000000;stroke-width:0;stroke-linejoin:round;stroke-miterlimit:4;stroke-dasharray:none"
         id="rect1666-34-5"
         width="3.1738257"
         height="14.699824"
         x="39.293579"
         y="5.9251862"
         rx="1.5"
         ry="1.5" />
    </g>
    <g
       id="g1688"
       transform="translate(-0.72807758)">
      <path
         id="rect4276"
         style="stroke:#000000;stroke-width:0;stroke-linejoin:round"
         d="m 9.6604562,1.77219 c 0.2083042,0 0.3760008,0.16858 0.3760008,0.37799 v 30.86605 c 0,0.20941 -0.1676966,0.378 -0.3760008,0.378 -0.208304,0 -0.376,-0.16859 -0.376,-0.378 V 2.15018 c 0,-0.20941 0.167696,-0.37799 0.376,-0.37799 z" />
      <path
         id="rect4276-0"
         style="stroke:#000000;stroke-width:0;stroke-linejoin:round"
         d="m 16.153523,1.77219 c 0.208304,0 0.376,0.16858 0.376,0.37799 v 30.86605 c 0,0.20941 -0.167696,0.378 -0.376,0.378 -0.208304,0 -0.376,-0.16859 -0.376,-0.378 V 2.15018 c 0,-0.20941 0.167696,-0.37799 0.376,-0.37799 z" />
      <path
         id="rect4276-7"
         style="stroke:#000000;stroke-width:0;stroke-linejoin:round"
         d="m 27.860332,1.77219 c 0.2083,0 0.376,0.16858 0.376,0.37799 v 30.86605 c 0,0.20941 -0.1677,0.378 -0.376,0.378 -0.20831,0 -0.376,-0.16859 -0.376,-0.378 V 2.15018 c 0,-0.20941 0.16769,-0.37799 0.376,-0.37799 z" />
      <path
         id="rect4276-8"
         style="stroke:#000000;stroke-width:0;stroke-linejoin:round"
         d="m 34.413562,1.77219 c 0.2083,0 0.376,0.16858 0.376,0.37799 v 30.86605 c 0,0.20941 -0.1677,0.378 -0.376,0.378 -0.20831,0 -0.376,-0.16859 -0.376,-0.378 V 2.15018 c 0,-0.20941 0.16769,-0.37799 0.376,-0.37799 z" />
      <path
         id="rect4276-3"
         style="stroke:#000000;stroke-width:0;stroke-linejoin:round"
         d="m 40.906642,1.77219 c 0.2083,0 0.376,0.16858 0.376,0.37799 v 30.86605 c 0,0.20941 -0.1677,0.378 -0.376,0.378 -0.20831,0 -0.376,-0.16859 -0.376,-0.378 V 2.15018 c 0,-0.20941 0.16769,-0.37799 0.376,-0.37799 z" />
    </g>
    <g
       id="g2710">
      <path
         d="m 8.5563781,35.91902 c 0,-0.298127 0.149063,-0.44719 0.447189,-0.44719 0.298128,0 0.447193,0.149063 0.447193,0.44719 v 7.602237 h 5.9067549 c 0.298127,0 0.44719,0.149064 0.44719,0.447192 0,0.298127 -0.149063,0.44719 -0.44719,0.44719 H 9.0035671 c -0.298126,0 -0.447189,-0.149063 -0.447189,-0.44719 z"
         id="path1364-4-8"
         style="font-size:71.5662px;line-height:1.25;font-family:ISOCTEUR;-inkscape-font-specification:ISOCTEUR;letter-spacing:0px;word-spacing:0px;white-space:pre;stroke-width:0.193897"
         sodipodi:nodetypes="ssscssssss" />
      <path
         d="m 21.278849,44.415639 q -0.44719,0 -0.44719,-0.44719 V 35.91902 q 0,-0.44719 0.44719,-0.44719 0.447191,0 0.447191,0.44719 v 8.049429 q 0,0.44719 -0.447191,0.44719 z"
         id="path1366"
         style="font-size:71.5662px;line-height:1.25;font-family:ISOCTEUR;-inkscape-font-specification:ISOCTEUR;letter-spacing:0px;word-spacing:0px;white-space:pre;stroke-width:0.193897" />
      <path
         d="m 30.413202,44.415639 q -0.325229,0 -0.440415,-0.345557 l -2.669591,-8.008775 q -0.02033,-0.06098 -0.02033,-0.142287 0,-0.44719 0.447192,-0.44719 0.325229,0 0.426864,0.304903 l 2.256278,6.768837 2.25628,-6.768837 q 0.101634,-0.304903 0.426863,-0.304903 0.44719,0 0.44719,0.44719 0,0.08131 -0.02033,0.142287 l -2.669592,8.008775 q -0.115184,0.345557 -0.440415,0.345557 z"
         id="path1368"
         style="font-size:71.5662px;line-height:1.25;font-family:ISOCTEUR;-inkscape-font-specification:ISOCTEUR;letter-spacing:0px;word-spacing:0px;white-space:pre;stroke-width:0.193897" />
      <path
         d="M 38.01544,43.968449 V 35.91902 q 0,-0.44719 0.44719,-0.44719 h 3.577524 q 0.44719,0 0.44719,0.44719 0,0.44719 -0.44719,0.44719 H 38.90982 v 2.683144 h 2.235954 q 0.44719,0 0.44719,0.447189 0,0.44719 -0.44719,0.44719 H 38.90982 v 3.577524 h 3.130334 q 0.44719,0 0.44719,0.447192 0,0.44719 -0.44719,0.44719 H 38.46263 q -0.44719,0 -0.44719,-0.44719 z"
         id="path1370"
         style="font-size:71.5662px;line-height:1.25;font-family:ISOCTEUR;-inkscape-font-specification:ISOCTEUR;letter-spacing:0px;word-spacing:0px;white-space:pre;stroke-width:0.193897" />
    </g>
  </g>
</svg>
