<svg version="1.1" viewBox="0 0 24 24" xmlns="http://www.w3.org/2000/svg">
 <g transform="matrix(.48757 0 0 .48757 -.31467 -1.2907e-6)">
  <rect x="8.0474" y="5.9252" width="3.1738" height="14.7" rx="1.5" ry="1.5"/>
  <rect x="14.54" y="5.9252" width="3.1738" height="14.7" rx="1.5" ry="1.5"/>
  <rect x="26.247" y="5.9252" width="3.1738" height="14.7" rx="1.5" ry="1.5"/>
  <rect x="32.8" y="5.9252" width="3.1738" height="14.7" rx="1.5" ry="1.5"/>
  <rect x="39.294" y="5.9252" width="3.1738" height="14.7" rx="1.5" ry="1.5"/>
  <path d="m9.6605 1.7722c0.2083 0 0.376 0.16858 0.376 0.37799v30.866c0 0.20941-0.1677 0.378-0.376 0.378-0.2083 0-0.376-0.16859-0.376-0.378v-30.866c0-0.20941 0.1677-0.37799 0.376-0.37799z"/>
  <path d="m16.154 1.7722c0.2083 0 0.376 0.16858 0.376 0.37799v30.866c0 0.20941-0.1677 0.378-0.376 0.378s-0.376-0.16859-0.376-0.378v-30.866c0-0.20941 0.1677-0.37799 0.376-0.37799z"/>
  <path d="m27.86 1.7722c0.2083 0 0.376 0.16858 0.376 0.37799v30.866c0 0.20941-0.1677 0.378-0.376 0.378-0.20831 0-0.376-0.16859-0.376-0.378v-30.866c0-0.20941 0.16769-0.37799 0.376-0.37799z"/>
  <path d="m34.414 1.7722c0.2083 0 0.376 0.16858 0.376 0.37799v30.866c0 0.20941-0.1677 0.378-0.376 0.378-0.20831 0-0.376-0.16859-0.376-0.378v-30.866c0-0.20941 0.16769-0.37799 0.376-0.37799z"/>
  <path d="m40.907 1.7722c0.2083 0 0.376 0.16858 0.376 0.37799v30.866c0 0.20941-0.1677 0.378-0.376 0.378-0.20831 0-0.376-0.16859-0.376-0.378v-30.866c0-0.20941 0.16769-0.37799 0.376-0.37799z"/>
 </g>
</svg>
