<svg version="1.1" viewBox="0 0 24 24" xmlns="http://www.w3.org/2000/svg">
 <g transform="matrix(.48757 0 0 .48757 -.31467 -1.2907e-6)">
  <rect x="8.0474" y="5.9252" width="3.1738" height="14.7" rx="1.5" ry="1.5"/>
  <rect x="14.54" y="5.9252" width="3.1738" height="14.7" rx="1.5" ry="1.5"/>
  <rect x="26.247" y="5.9252" width="3.1738" height="14.7" rx="1.5" ry="1.5"/>
  <rect x="32.8" y="5.9252" width="3.1738" height="14.7" rx="1.5" ry="1.5"/>
  <rect x="39.294" y="5.9252" width="3.1738" height="14.7" rx="1.5" ry="1.5"/>
  <path d="m9.6605 1.7722c0.2083 0 0.376 0.16858 0.376 0.37799v30.866c0 0.20941-0.1677 0.378-0.376 0.378-0.2083 0-0.376-0.16859-0.376-0.378v-30.866c0-0.20941 0.1677-0.37799 0.376-0.37799z"/>
  <path d="m16.154 1.7722c0.2083 0 0.376 0.16858 0.376 0.37799v30.866c0 0.20941-0.1677 0.378-0.376 0.378s-0.376-0.16859-0.376-0.378v-30.866c0-0.20941 0.1677-0.37799 0.376-0.37799z"/>
  <path d="m27.86 1.7722c0.2083 0 0.376 0.16858 0.376 0.37799v30.866c0 0.20941-0.1677 0.378-0.376 0.378-0.20831 0-0.376-0.16859-0.376-0.378v-30.866c0-0.20941 0.16769-0.37799 0.376-0.37799z"/>
  <path d="m34.414 1.7722c0.2083 0 0.376 0.16858 0.376 0.37799v30.866c0 0.20941-0.1677 0.378-0.376 0.378-0.20831 0-0.376-0.16859-0.376-0.378v-30.866c0-0.20941 0.16769-0.37799 0.376-0.37799z"/>
  <path d="m40.907 1.7722c0.2083 0 0.376 0.16858 0.376 0.37799v30.866c0 0.20941-0.1677 0.378-0.376 0.378-0.20831 0-0.376-0.16859-0.376-0.378v-30.866c0-0.20941 0.16769-0.37799 0.376-0.37799z"/>
 </g>
 <g transform="matrix(.48757 0 0 .48757 .040315 -1.2907e-6)">
  <path d="m8.5564 35.919c0-0.29813 0.14906-0.44719 0.44719-0.44719 0.29813 0 0.44719 0.14906 0.44719 0.44719v7.6022h5.9068c0.29813 0 0.44719 0.14906 0.44719 0.44719 0 0.29813-0.14906 0.44719-0.44719 0.44719h-6.3539c-0.29813 0-0.44719-0.14906-0.44719-0.44719z"/>
  <path d="m21.279 44.416q-0.44719 0-0.44719-0.44719v-8.0494q0-0.44719 0.44719-0.44719 0.44719 0 0.44719 0.44719v8.0494q0 0.44719-0.44719 0.44719z"/>
  <path d="m30.413 44.416q-0.32523 0-0.44042-0.34556l-2.6696-8.0088q-0.02033-0.06098-0.02033-0.14229 0-0.44719 0.44719-0.44719 0.32523 0 0.42686 0.3049l2.2563 6.7688 2.2563-6.7688q0.10163-0.3049 0.42686-0.3049 0.44719 0 0.44719 0.44719 0 0.08131-0.02033 0.14229l-2.6696 8.0088q-0.11518 0.34556-0.44042 0.34556z"/>
  <path d="m38.015 43.968v-8.0494q0-0.44719 0.44719-0.44719h3.5775q0.44719 0 0.44719 0.44719t-0.44719 0.44719h-3.1303v2.6831h2.236q0.44719 0 0.44719 0.44719 0 0.44719-0.44719 0.44719h-2.236v3.5775h3.1303q0.44719 0 0.44719 0.44719 0 0.44719-0.44719 0.44719h-3.5775q-0.44719 0-0.44719-0.44719z"/>
 </g>
</svg>
