<?xml version="1.0" encoding="UTF-8" standalone="no"?>
<svg
   width="49.223999mm"
   height="49.223999mm"
   viewBox="0 0 49.224001 49.224"
   version="1.1"
   id="svg8"
   inkscape:version="1.1 (c68e22c387, 2021-05-23)"
   sodipodi:docname="logo-live.svg"
   inkscape:export-filename="C:\dev\scribbletune\live\logo\logo-live.png"
   inkscape:export-xdpi="66.050003"
   inkscape:export-ydpi="66.050003"
   xmlns:inkscape="http://www.inkscape.org/namespaces/inkscape"
   xmlns:sodipodi="http://sodipodi.sourceforge.net/DTD/sodipodi-0.dtd"
   xmlns="http://www.w3.org/2000/svg"
   xmlns:svg="http://www.w3.org/2000/svg"
   xmlns:rdf="http://www.w3.org/1999/02/22-rdf-syntax-ns#"
   xmlns:cc="http://creativecommons.org/ns#"
   xmlns:dc="http://purl.org/dc/elements/1.1/">
  <defs
     id="defs2">
    <rect
       x="126.54173"
       y="886.16931"
       width="396.40811"
       height="189.213"
       id="rect18868" />
    <linearGradient
       id="linearGradient12400"
       inkscape:swatch="solid">
      <stop
         style="stop-color:#000000;stop-opacity:1;"
         offset="0"
         id="stop12398" />
    </linearGradient>
    <rect
       x="126.54173"
       y="886.16931"
       width="262.02969"
       height="123.8307"
       id="rect18868-8" />
    <rect
       x="126.54173"
       y="886.16931"
       width="250.50673"
       height="119.98971"
       id="rect18868-7" />
    <rect
       x="126.54173"
       y="886.16931"
       width="250.50673"
       height="119.98971"
       id="rect18868-6" />
    <rect
       x="126.54173"
       y="886.16931"
       width="396.40811"
       height="189.213"
       id="rect18868-3" />
    <rect
       x="126.54173"
       y="886.16931"
       width="396.40811"
       height="189.213"
       id="rect18868-77" />
    <rect
       x="126.54173"
       y="886.16931"
       width="396.40811"
       height="189.213"
       id="rect18868-1" />
    <rect
       x="126.54173"
       y="886.16931"
       width="396.40811"
       height="189.213"
       id="rect18868-2" />
    <rect
       x="126.54173"
       y="886.16931"
       width="396.40811"
       height="189.213"
       id="rect18868-2-5" />
    <rect
       x="126.54173"
       y="886.16931"
       width="396.40811"
       height="189.213"
       id="rect18868-2-5-1" />
    <rect
       x="126.54173"
       y="886.16931"
       width="396.40811"
       height="189.213"
       id="rect18868-2-5-1-8" />
    <rect
       x="126.54173"
       y="886.16931"
       width="396.40811"
       height="189.213"
       id="rect18868-2-5-1-7" />
    <rect
       x="126.54173"
       y="886.16931"
       width="396.40811"
       height="189.213"
       id="rect18868-2-5-1-8-4" />
    <rect
       x="126.54173"
       y="886.16931"
       width="396.40811"
       height="189.213"
       id="rect18868-2-5-1-8-4-6" />
  </defs>
  <sodipodi:namedview
     id="base"
     pagecolor="#ffffff"
     bordercolor="#666666"
     borderopacity="1.0"
     inkscape:pageopacity="0.0"
     inkscape:pageshadow="2"
     inkscape:zoom="1.6001151"
     inkscape:cx="-89.056091"
     inkscape:cy="49.058969"
     inkscape:document-units="mm"
     inkscape:current-layer="layer1"
     inkscape:document-rotation="0"
     showgrid="false"
     inkscape:window-width="2374"
     inkscape:window-height="1677"
     inkscape:window-x="3245"
     inkscape:window-y="165"
     inkscape:window-maximized="0"
     inkscape:pagecheckerboard="0"
     units="mm"
     inkscape:lockguides="true"
     width="49.159mm" />
  <metadata
     id="metadata5">
    <rdf:RDF>
      <cc:Work
         rdf:about="">
        <dc:format>image/svg+xml</dc:format>
        <dc:type
           rdf:resource="http://purl.org/dc/dcmitype/StillImage" />
      </cc:Work>
    </rdf:RDF>
  </metadata>
  <g
     inkscape:label="Layer 1"
     inkscape:groupmode="layer"
     id="layer1">
    <path
       d="m 8.6914165,35.91902 c 0,-0.29813 0.149063,-0.44719 0.44719,-0.44719 0.298127,0 0.447191,0.14906 0.447191,0.44719 v 7.60224 h 4.7178345 c 0.298126,0 0.44719,0.14906 0.44719,0.44719 0,0.29813 -0.149063,0.44719 -0.44719,0.44719 H 9.1386065 c -0.298127,0 -0.44719,-0.14906 -0.44719,-0.44719 z"
       id="path3284"
       style="font-size:71.5662px;line-height:1.25;font-family:ISOCTEUR;-inkscape-font-specification:ISOCTEUR;letter-spacing:0px;word-spacing:0px;white-space:pre;stroke-width:0.193897"
       sodipodi:nodetypes="ssscssssss" />
    <path
       d="m 31.141272,44.41564 q -0.32522,0 -0.44041,-0.34556 l -2.66959,-8.00877 q -0.0203,-0.061 -0.0203,-0.14229 0,-0.44719 0.44719,-0.44719 0.32523,0 0.42687,0.3049 l 2.25627,6.76884 2.25628,-6.76884 q 0.10164,-0.3049 0.42687,-0.3049 0.44719,0 0.44719,0.44719 0,0.0813 -0.0203,0.14229 l -2.66959,8.00877 q -0.11518,0.34556 -0.44042,0.34556 z"
       id="path3288"
       style="font-size:71.5662px;line-height:1.25;font-family:ISOCTEUR;-inkscape-font-specification:ISOCTEUR;letter-spacing:0px;word-spacing:0px;white-space:pre;stroke-width:0.193897" />
    <path
       d="m 38.743512,43.96845 v -8.04943 q 0,-0.44719 0.44719,-0.44719 h 3.57753 q 0.44719,0 0.44719,0.44719 0,0.44719 -0.44719,0.44719 h -3.13034 v 2.68314 h 2.23596 q 0.44719,0 0.44719,0.44719 0,0.44719 -0.44719,0.44719 h -2.23596 v 3.57753 h 3.13034 q 0.44719,0 0.44719,0.44719 0,0.44719 -0.44719,0.44719 h -3.57753 q -0.44719,0 -0.44719,-0.44719 z"
       id="path3290"
       style="font-size:71.5662px;line-height:1.25;font-family:ISOCTEUR;-inkscape-font-specification:ISOCTEUR;letter-spacing:0px;word-spacing:0px;white-space:pre;stroke-width:0.193897" />
    <path
       id="rect4276-5-0-1"
       style="stroke:#000000;stroke-width:0;stroke-linejoin:round"
       d="m 21.307112,1.77219 c 0.20831,0 0.376,0.16769 0.376,0.376 v 41.8953 c 0,0.2083 -0.16769,0.376 -0.376,0.376 -0.2083,0 -0.376,-0.1677 -0.376,-0.376 V 2.14819 c 0,-0.20831 0.1677,-0.376 0.376,-0.376 z" />
    <g
       id="g6297"
       transform="translate(-79.853988,-159.57518)">
      <rect
         style="fill:#000000;fill-opacity:1;stroke:#000000;stroke-width:0;stroke-linejoin:round;stroke-miterlimit:4;stroke-dasharray:none"
         id="rect1666-34"
         width="3.1738257"
         height="14.699824"
         x="86.561913"
         y="165.50037"
         rx="1.5"
         ry="1.5" />
      <rect
         style="fill:#000000;fill-opacity:1;stroke:#000000;stroke-width:0;stroke-linejoin:round;stroke-miterlimit:4;stroke-dasharray:none"
         id="rect1666-34-3"
         width="3.1738257"
         height="14.699824"
         x="93.054977"
         y="165.50037"
         rx="1.5"
         ry="1.5" />
      <rect
         style="fill:#000000;fill-opacity:1;stroke:#000000;stroke-width:0;stroke-linejoin:round;stroke-miterlimit:4;stroke-dasharray:none"
         id="rect1666-34-2"
         width="3.1738257"
         height="14.699824"
         x="106.10126"
         y="165.50037"
         rx="1.5"
         ry="1.5" />
      <rect
         style="fill:#000000;fill-opacity:1;stroke:#000000;stroke-width:0;stroke-linejoin:round;stroke-miterlimit:4;stroke-dasharray:none"
         id="rect1666-34-6"
         width="3.1738257"
         height="14.699824"
         x="112.65449"
         y="165.50037"
         rx="1.5"
         ry="1.5" />
      <rect
         style="fill:#000000;fill-opacity:1;stroke:#000000;stroke-width:0;stroke-linejoin:round;stroke-miterlimit:4;stroke-dasharray:none"
         id="rect1666-34-5"
         width="3.1738257"
         height="14.699824"
         x="119.14757"
         y="165.50037"
         rx="1.5"
         ry="1.5" />
    </g>
    <g
       id="g6305"
       transform="translate(-79.853988,-159.57518)">
      <path
         id="rect4276"
         style="stroke:#000000;stroke-width:0;stroke-linejoin:round"
         d="m 88.174973,161.34737 c 0.208304,0 0.376,0.16858 0.376,0.37799 v 30.86605 c 0,0.20941 -0.167696,0.378 -0.376,0.378 -0.208304,0 -0.376,-0.16859 -0.376,-0.378 v -30.86605 c 0,-0.20941 0.167696,-0.37799 0.376,-0.37799 z" />
      <path
         id="rect4276-0"
         style="stroke:#000000;stroke-width:0;stroke-linejoin:round"
         d="m 94.668038,161.34737 c 0.208304,0 0.376,0.16858 0.376,0.37799 v 30.86605 c 0,0.20941 -0.167696,0.378 -0.376,0.378 -0.208304,0 -0.376,-0.16859 -0.376,-0.378 v -30.86605 c 0,-0.20941 0.167696,-0.37799 0.376,-0.37799 z" />
      <path
         id="rect4276-5-0"
         style="stroke:#000000;stroke-width:0;stroke-linejoin:round"
         d="m 101.1611,161.34737 c 0.20831,0 0.376,0.16858 0.376,0.37799 v 30.86605 c 0,0.20941 -0.16769,0.378 -0.376,0.378 -0.2083,0 -0.376,-0.16859 -0.376,-0.378 v -30.86605 c 0,-0.20941 0.1677,-0.37799 0.376,-0.37799 z" />
      <path
         id="rect4276-7"
         style="stroke:#000000;stroke-width:0;stroke-linejoin:round"
         d="m 107.71432,161.34737 c 0.2083,0 0.376,0.16858 0.376,0.37799 v 30.86605 c 0,0.20941 -0.1677,0.378 -0.376,0.378 -0.20831,0 -0.376,-0.16859 -0.376,-0.378 v -30.86605 c 0,-0.20941 0.16769,-0.37799 0.376,-0.37799 z" />
      <path
         id="rect4276-8"
         style="stroke:#000000;stroke-width:0;stroke-linejoin:round"
         d="m 114.26755,161.34737 c 0.2083,0 0.376,0.16858 0.376,0.37799 v 30.86605 c 0,0.20941 -0.1677,0.378 -0.376,0.378 -0.20831,0 -0.376,-0.16859 -0.376,-0.378 v -30.86605 c 0,-0.20941 0.16769,-0.37799 0.376,-0.37799 z" />
      <path
         id="rect4276-3"
         style="stroke:#000000;stroke-width:0;stroke-linejoin:round"
         d="m 120.76063,161.34737 c 0.2083,0 0.376,0.16858 0.376,0.37799 v 30.86605 c 0,0.20941 -0.1677,0.378 -0.376,0.378 -0.20831,0 -0.376,-0.16859 -0.376,-0.378 v -30.86605 c 0,-0.20941 0.16769,-0.37799 0.376,-0.37799 z" />
    </g>
  </g>
</svg>
